<mxfile host="app.diagrams.net" modified="2024-01-19T01:51:43.488Z" agent="Mozilla/5.0 (Macintosh; Intel Mac OS X 10_15_7) AppleWebKit/537.36 (KHTML, like Gecko) Chrome/120.0.0.0 Safari/537.36" version="22.1.16" etag="rCVvh_4xZKDe8BzdflHE" type="github">
  <diagram name="第 1 页" id="ey0noMueDYD_QGQC2phM">
    <mxGraphModel>
      <root>
        <mxCell id="0" />
        <mxCell id="1" parent="0" />
      </root>
    </mxGraphModel>
  </diagram>
</mxfile>
